<?xml version="1.0" encoding="utf-8"?>
<!-- Generator: Adobe Illustrator 25.2.1, SVG Export Plug-In . SVG Version: 6.00 Build 0)  -->
<svg version="1.1" id="Layer_1" xmlns="http://www.w3.org/2000/svg" xmlns:xlink="http://www.w3.org/1999/xlink" x="0px" y="0px"
	 viewBox="0 0 277 100" style="enable-background:new 0 0 277 100;" xml:space="preserve">
<style type="text/css">
	.st0{fill:#00AEEF;}
</style>
<g>
	<path class="st0" d="M52.3,97.7c-26.4,0-47.8-21.4-47.8-47.8c0-26.3,21.4-47.7,47.8-47.7C72.8,2.2,90.1,15,97,33
		C90,13.7,71.6,0,50,0C22.4,0,0,22.4,0,50c0,27.6,22.4,50,50,50c21.6,0,40.1-13.7,47-33C90.1,84.8,72.6,97.7,52.3,97.7z"/>
	<polygon class="st0" points="171.5,53 166.8,53 166.8,48.6 164.9,48.6 164.9,59.5 166.8,59.5 166.8,54.7 171.5,54.7 171.5,59.5 
		173.4,59.5 173.4,48.6 171.5,48.6 	"/>
	<polygon class="st0" points="152.7,50.3 155.9,50.3 155.9,59.5 157.9,59.5 157.9,50.3 161,50.3 161,48.6 152.7,48.6 	"/>
	<rect x="178.3" y="48.6" class="st0" width="1.9" height="10.9"/>
	<path class="st0" d="M102.3,43.7h18.5c0,0,0-3.4-1.6-3.4H99.3c-1.7,0-9.5,0-9.5,9.6s7.8,9.6,9.5,9.6h21.5c-0.1,0.1-0.1-3.4-1.7-3.4
		h-16.8c-3.1-0.1-3-2.2-3-6.2S99.3,43.8,102.3,43.7z"/>
	<path class="st0" d="M83.1,40.4H63.2c-1.7,0-9.5,0-9.5,9.6v9.5c0,0,9.5,0,9.5-1.6V50c0-4,0-6.1,3-6.2h18.5
		C84.7,43.8,84.7,40.4,83.1,40.4L83.1,40.4z"/>
	<path class="st0" d="M27.3,40.4c-1.7,0-9.5,0-9.5,9.6v9.5c0,0,9.5,0,9.5-1.6V50c0-4,0-6.1,3-6.2h18.5c0,0,0-3.4-1.7-3.4H27.3z"/>
	<polygon class="st0" points="242.4,48.6 240.5,48.6 240.5,59.5 247,59.5 247,57.8 242.4,57.8 	"/>
	<path class="st0" d="M256.9,54.9c0,2.1-0.9,3.1-2.3,3.1c-1.3,0-2.2-0.9-2.2-3.1v-6.2h-2.1v6.2c0,3.4,1.6,4.8,4.1,4.8
		c2.7,0,4.4-1.6,4.4-4.9v-6.2h-1.9V54.9z"/>
	<path class="st0" d="M192,52.3c0,1.7,0,3.1,0.1,4.5c-0.4-1.2-1-2.5-1.8-3.6l-2.8-4.7h-2.3v10.9h1.9v-3.9c0-1.8,0-3.2-0.1-4.7
		c0.5,1.2,1.3,2.6,1.9,3.8l2.8,4.8h2.1V48.6H192V52.3z"/>
	<path class="st0" d="M230.3,48.6l-3.5,10.9h2.1l0.9-3.1h3.4l1,3.1h2.2l-3.5-10.9H230.3z M230,54.9l0.9-2.7c0.1-0.6,0.4-1.4,0.5-2.1
		c0.1,0.6,0.3,1.4,0.5,2.1l0.9,2.7H230z"/>
	<path class="st0" d="M221.1,53.5c-0.5,1.4-0.9,2.7-1.2,4c-0.3-1.3-0.6-2.6-1-4l-1.6-4.9h-2.2l3.5,10.9v-0.1h2.3l3.8-10.9h-2.1
		L221.1,53.5z"/>
	<polygon class="st0" points="206.8,48.6 204.4,48.6 201.5,52.5 200.7,53.6 200.7,48.6 198.8,48.6 198.7,48.6 198.7,59.5 
		200.6,59.5 200.6,55.6 201.6,54.4 204.7,59.5 207.1,59.5 203.1,53.2 	"/>
	<path class="st0" d="M275.7,57.1c-0.8,0-1.3,0.5-1.3,1.3s0.4,1.3,1.2,1.3s1.3-0.6,1.4-1.3C277,57.6,276.5,57.1,275.7,57.1z"/>
	<polygon class="st0" points="265.9,54.7 270,54.7 270,53 265.9,53 265.9,50.3 270.1,50.3 270.1,48.6 263.8,48.6 263.8,59.5 
		270.4,59.5 270.4,57.9 265.9,57.9 	"/>
</g>
</svg>
