<?xml version="1.0" encoding="utf-8"?>
<!-- Generator: Adobe Illustrator 25.2.1, SVG Export Plug-In . SVG Version: 6.00 Build 0)  -->
<svg version="1.1" xmlns="http://www.w3.org/2000/svg" xmlns:xlink="http://www.w3.org/1999/xlink" x="0px" y="0px"
	 viewBox="0 0 68 70" style="enable-background:new 0 0 68 70;" xml:space="preserve">
<style type="text/css">
	.st0{fill:#D8D8D8;}
	.st1{fill:#8CD26E;}
	.st2{fill:#0082D2;}
	.st3{fill:#FFF;}
	.st4{fill:#00D2AA;}
	.st5{fill:#00D7E1;}
	.st6{fill:#F6F9FA;}
	.st7{fill:#E1EAEF;}
</style>
<g id="Layer_1">
	<path class="st3" d="M66.23,54.36c-0.52,0.59-0.84,1.35-1.06,2.14c-1.97,1.05-3.79,1.85-6.1,1.61c-1.54-0.16-4.23-1.62-5.68-0.74
		c-1.74,1.05-0.65,4.42-0.69,6c-0.09,3.01-2.9,3.79-5.27,4.75c-1.12,0.46-2.13,1.09-3.15,1.7c-0.25-0.33-0.48-0.67-0.82-0.92
		c-0.54-0.39-1.35-0.1-1.97-0.46c-0.98-0.57-0.52-2.11-0.56-3.07c-0.04-0.96-0.18-2.26-1.14-2.76c-0.85-0.44-1.9-0.16-2.81-0.24
		c-1.09-0.1-1.23-0.86-1.08-1.82c0.09-0.61,0.87-2.46,0.32-2.97c-0.54-0.51-2.07,0.69-2.55,0.92c-0.88,0.45-1.71,0.7-2.59,0.12
		c-0.82-0.54-1.48-1.16-2.5-1.32c-0.94-0.15-2.11,0.01-2.72,0.82c-0.08,0.1-0.14,0.21-0.2,0.32c-0.67-0.14-4.36,1.23-5.16,1.04
		c-0.8-0.19-0.66-2.73-1.46-3.95c-0.8-1.22-2.07,0.47-2.49,2.12c-0.42,1.64-1.55,0.28-3.01-0.57c-1.46-0.84-4.04-1.55-5.22-1.74
		c-1.17-0.19-3.98,2.74-3.98,2.74c0.13-0.91,0.25-1.85-0.28-2.61c-0.83-1.21-2.46-1.4-3.19-2.8c-0.76-1.46-0.35-2.88,0.47-4.18
		c0.94-1.5,1.98-2.87,1.91-4.74c-0.06-1.58-1.14-2.84-1.29-4.37c-0.3-3.19,2.89-5.48,5.75-4.99c1.63,0.27,3.17,0.82,4.61-0.28
		c1.19-0.9,2.22-2.49,2.9-3.81c1.11-2.15,0.9-4.83,2.29-6.85c0.93-1.35,2.08-1.39,3.41-2.07c1.49-0.76,2.15-2.44,2.39-4.02
		c0.14-0.94-0.71-10.63-0.76-10.62c0,0,5.05,0.42,6.18-1.74c1.13-2.17,0.75-6.3,4.33-4.28c3.57,2.02,4.79,4.75,6.59,5.31
		c1.78,0.57,3.82,2.95,7.6,2.37c-0.1,0.16-0.17,0.34-0.2,0.55c-0.11,0.65,0.21,1.3,0.64,1.78c0.4,0.44,0.96,0.72,1.29,1.22
		c0.41,0.62,0.27,1.36,0.06,2.03c-0.2,0.64-0.78,1.58-0.56,2.27c0.24,0.72,1.17,0.45,1.69,0.23c0.5-0.2,1.37-1.02,1.93-0.91
		c0.44,0.09,0.57,0.69,0.67,1.05c0.1,0.4,0.27,0.76,0.38,1.15c0.1,0.38,0.14,2.27,0.97,1.71c0.57-0.39,0.82-0.5,1.52-0.55
		c0.61-0.04,1.24-0.32,1.82,0c1.2,0.67,1.54,2.44,2.01,3.6c0.53,1.32,1.69,2.08,1.93,3.58c0.12,0.72,0.07,1.51-0.37,2.11
		c-0.31,0.41-0.76,0.69-1.04,1.12c-0.29,0.45-0.45,0.95-0.84,1.33c-0.36,0.35-0.74,0.67-1.08,1.05c-0.46,0.51-0.81,1.03-1.2,1.6
		c-0.31,0.47-0.86,0.83-0.98,1.4c-0.11,0.52,0.14,1.13,0.12,1.67c-0.01,0.79,0.14,1.26,0.8,1.71c0.23,0.15,0.44,0.27,0.61,0.5
		c0.1,0.14,0.14,0.32,0.27,0.44c0.29,0.27,0.91,0.38,1.28,0.51c0.6,0.21,1.14,0.18,1.42,0.84c0.19,0.44,0.27,0.92,0.28,1.4
		c0.01,0.35-0.11,0.77,0.05,1.1c0.32,0.65,1.21,1.16,1.91,1.15c1.11-0.01,2.25-0.78,2.6,0.76c0.31,1.36-0.09,2.78,0.15,4.15
		c0.25,1.39,1.63,1.86,2.05,3.09C67.81,53.08,66.83,53.69,66.23,54.36z"/>
</g>
<g id="Layer_3">
</g>
<g id="Layer_2">
</g>
</svg>
