<?xml version="1.0" encoding="utf-8"?>
<!-- Generator: Adobe Illustrator 25.2.1, SVG Export Plug-In . SVG Version: 6.00 Build 0)  -->
<svg version="1.1" xmlns="http://www.w3.org/2000/svg" xmlns:xlink="http://www.w3.org/1999/xlink" x="0px" y="0px"
	 viewBox="0 0 1226 656" style="enable-background:new 0 0 1226 656;" xml:space="preserve">
<style type="text/css">
	.st1{fill:#8CD26E;}
</style>
<g id="Layer_1">
	<g>
		<path class="st1" d="M583.73,481.7c-1.25,1.13-1,0.62-1.32,2.5c-0.31,1.88-2.88,2.13-5.21,3.01c-2.32,0.88-1.63,2.88,0.07,4.14
			c1.27,0.94-0.42,1.67-1.74,2.14c-0.44,0.15-0.85,0.28-1.08,0.37c-0.94,0.38-3.58,1.69-5.21,2.19c-1.63,0.51-2.57-1.06-3.2-2.13
			c-0.62-1.07-1.82,0.19-3.82,0.38c-2.01,0.19-4.89-1.38-6.4-1.95c-1.5-0.56-1.82,0.25-2.32,2.07c-0.5,1.82-2.07,0.63-4.02,0.82
			c-1.94,0.19-1.13,1.06-2.95,2.07c-1.82,1-5.52,0.81-7.09,0.56c-1.57-0.25-1.32,0.75-1.82,1.5c-0.11,0.17-0.23,0.25-0.36,0.26
			c-0.46,0.06-1.08-0.68-1.96-1.27c-1.13-0.75-2.26-0.31-3.26,1.32c-1,1.63-0.88,0.94-1.69,0.56c-0.82-0.38-0.94,0.94-1.63,1.76
			c-0.69,0.81-1.82,0-2.82-0.44c-1-0.44-0.13-2.01,0.75-2.88c0.88-0.88,0.44-2.19-0.19-4.01c-0.63-1.82,1.38-3.7,1.88-6.02
			c0.5-2.32-2.95-1.19-4.52-0.38c-1.57,0.82-2.26,0.82-3.76,0.31c-1.51-0.5-1.69,0.12-4.7,0.94c-3.01,0.82-2.39-1.07-3.39-5.2
			c-1.01-4.14-5.46-3.58-7.84-2.82c-2.38,0.75-3.82-1.19-5.08-4.7c-1.25-3.52-0.12-3.07-9.91-10.1c-9.78-7.02-18.82-7.62-18.82-7.62
			c0-0.01,0-0.01,0-0.02c-0.03-0.13-0.05-0.26-0.09-0.39c0,0,0,0,0-0.01c-0.03-0.11-0.06-0.22-0.09-0.33c0-0.01,0-0.01-0.01-0.02
			c-0.05-0.17-0.12-0.34-0.18-0.51c-0.04-0.1-0.08-0.21-0.13-0.31c-0.07-0.18-0.15-0.35-0.23-0.52c-0.06-0.12-0.11-0.24-0.17-0.36
			c-0.28-0.56-0.58-1.11-0.84-1.68c-0.03-0.05-0.05-0.1-0.07-0.16c-0.04-0.09-0.07-0.17-0.11-0.26c-0.02-0.05-0.04-0.09-0.06-0.14
			c-0.05-0.12-0.09-0.24-0.13-0.36c-0.04-0.12-0.07-0.23-0.11-0.35c-0.02-0.07-0.04-0.14-0.06-0.21c-0.06-0.23-0.11-0.46-0.14-0.7
			c-0.18-1.33-0.11-2.77,0.38-4.03c0.45-1.15,1.34-2.07,1.78-3.22c0.44-1.18,0.03-2.16-0.62-3.17c-0.72-1.12-0.84-1.9-0.15-3.1
			c0.91-1.6,2.17-3.04,2.69-4.84c0.17-0.58,0.23-1.42-0.15-1.73c0,0,0,0,0-0.01c0.11-0.08,1.84-1.39,2.8-1.66
			c0.99-0.28,3.89-1.58,4.14-3.89c0.25-2.31,0.49-5.02,2.74-5.15c2.26-0.12,5.75,0.99,6.88-1.03c1.13-2.02,2.07-4.75,2.98-5.47
			c0.91-0.72,2.98-1.54,3.01-2.79c0.03-1.25-0.28-3.39,1.28-4.17c1.57-0.79,2.29-0.47,3.76-2.23c1.48-1.76,3.26-3.2,4.42-2.01
			c1.16,1.19,3.92,4.29,5.52,4.7c1.6,0.41,4.96-0.22,5.58,1.13c0.63,1.35,3.17,3.73,6.24,3.63c3.07-0.09,6.77-0.31,6.8,0.66
			c0.03,0.98,0.69,3.67,2.35,3.52c1.66-0.16,4.96-0.51,5.21,0.47c0.25,0.97,0.94,3.32,2.63,1.82c1.69-1.51,6.93-4.45,9.06-3.58
			c2.13,0.88,4.02,3.67,6.35,2.98c0.04,1.7,2.56,6.38,3.02,8.59c0.56,2.7-0.19,2.51-2.26,6.77c-2.07,4.26,7.71,5.15,15.37,6.08
			c7.65,0.94,5.46,5.71,5.89,9.54c0.44,3.82,5.96,2.44,7.21,1.88c1.25-0.56,1.32,4.27,1.19,5.82c-0.13,1.55-1.51,0.26-3.45,0.01
			c-1.95-0.25-4.08,3.39-5.71,8.84c-1.63,5.45,6.71,9.41,9.22,10.47C586.62,478.69,584.99,480.57,583.73,481.7z"/>
		</g>
		<polygon class="st0" points="178.5,258.91 181.16,264.3 187.12,265.17 182.81,269.37 183.83,275.3 178.5,272.5 173.18,275.3 
			174.19,269.37 169.88,265.17 175.84,264.3 		"/>
	</g>
<g id="Layer_3">
</g>
<g id="Layer_2">
</g>
</svg>
